<svg width="36" height="38" viewBox="0 0 36 38" fill="none" xmlns="http://www.w3.org/2000/svg">
<path d="M35.1386 37.4195C29.6982 34.6523 24.6248 32.1342 19.6126 29.4827C18.1968 28.7353 17.0737 28.6774 15.6229 29.456C10.5758 32.1742 5.44555 34.7368 0.149302 37.4595C0.149302 30.3013 0.149302 23.4411 0.149302 16.4386C1.70934 16.5943 2.4391 17.2527 2.41725 18.9299C2.34733 23.6502 2.39103 28.366 2.39103 33.4689C7.04928 31.0887 11.406 28.9444 15.6841 26.6354C17.0606 25.8924 18.1225 25.9013 19.4946 26.6309C23.7202 28.8821 28.0289 30.9775 32.3419 33.1485C33.4737 28.8865 33.1198 28.0857 29.5321 26.2483C20.3161 21.5281 11.1176 16.7678 1.87102 12.1098C0.50326 11.4203 -0.0604512 10.655 0.00509647 9.08459C0.127452 6.20618 0.040056 3.32331 0.040056 0.0889774C1.20243 0.649535 2.10262 1.06773 2.9897 1.51262C7.14979 3.62138 11.358 5.64117 15.4394 7.89675C17.0606 8.79097 18.2667 8.64416 19.818 7.81222C24.7603 5.16514 29.7725 2.66932 34.9813 0C34.9813 7.13599 34.9813 14.0406 34.9813 21.0076C33.4213 20.8385 32.709 20.1178 32.7396 18.4228C32.8226 13.7559 32.7702 9.08904 32.7702 4.12855C32.0273 4.43997 31.4505 4.63572 30.9086 4.916C27.0107 6.9091 23.1565 8.99117 19.2018 10.8597C18.3191 11.2779 16.9339 11.2912 16.0512 10.8864C12.3499 9.18247 8.75352 7.23831 5.11344 5.39648C4.35309 5.00943 3.56215 4.67576 2.42162 4.14635C2.42162 5.82357 2.21624 7.24276 2.50028 8.54628C2.66196 9.28034 3.52282 10.05 4.25696 10.4326C13.9012 15.442 23.5586 20.4248 33.2683 25.3052C34.7366 26.0437 35.2566 26.8934 35.1823 28.5173C35.0512 31.3156 35.1386 34.1317 35.1386 37.4195Z" fill="url(#paint0_linear_272_160)"/>
<defs>
<linearGradient id="paint0_linear_272_160" x1="5.22959" y1="9.3041" x2="33.7221" y2="30.3043" gradientUnits="userSpaceOnUse">
<stop stop-color="#FFDF00"/>
<stop offset="0.0517" stop-color="#FED700"/>
<stop offset="0.2345" stop-color="#FBBF12"/>
<stop offset="0.4205" stop-color="#F9AC19"/>
<stop offset="0.6085" stop-color="#F89E1C"/>
<stop offset="0.8" stop-color="#F8961D"/>
<stop offset="1" stop-color="#F7941D"/>
</linearGradient>
</defs>
</svg>
